REM DIRINDEX 1\2\3,1\2\4,1\2\5,1\2\6
REM DIRNAME folder01,folder02,folder03,folder04,folder05,folder06
TITLE ""
FILE "104 104.mp3" MP3
  TRACK 01 AUDIO
    TITLE "0:"
    INDEX 01 00:00:00
  TRACK 02 AUDIO
    TITLE "3:cjc157_3920"
    INDEX 01 00:00:11
  TRACK 03 AUDIO
    TITLE "0:"
    INDEX 01 00:01:07
  TRACK 04 AUDIO
    TITLE "4:cjc157_3921"
    INDEX 01 00:01:56
  TRACK 05 AUDIO
    TITLE "0:"
    INDEX 01 00:02:63
  TRACK 06 AUDIO
    TITLE "5:cjc157_3922"
    INDEX 01 00:03:35
  TRACK 07 AUDIO
    TITLE "0:"
    INDEX 01 00:05:16
  TRACK 08 AUDIO
    TITLE "5:cjc157_3923"
    INDEX 01 00:05:63
  TRACK 09 AUDIO
    TITLE "0:"
    INDEX 01 00:07:23
  TRACK 10 AUDIO
    TITLE "3:cjc157_3924"
    INDEX 01 00:07:70
  TRACK 11 AUDIO
    TITLE "0:"
    INDEX 01 00:09:02
  TRACK 12 AUDIO
    TITLE "4:cjc157_3925"
    INDEX 01 00:09:47
  TRACK 13 AUDIO
    TITLE "0:"
    INDEX 01 00:10:59
  TRACK 14 AUDIO
    TITLE "5:cjc157_3926"
    INDEX 01 00:11:27
  TRACK 15 AUDIO
    TITLE "0:"
    INDEX 01 00:15:50
  TRACK 16 AUDIO
    TITLE "5:cjc157_3927"
    INDEX 01 00:16:20
  TRACK 17 AUDIO
    TITLE "0:"
    INDEX 01 00:19:32
  TRACK 18 AUDIO
    TITLE "3:cjc157_3928"
    INDEX 01 00:20:04
  TRACK 19 AUDIO
    TITLE "0:"
    INDEX 01 00:21:19
  TRACK 20 AUDIO
    TITLE "4:cjc157_3929"
    INDEX 01 00:21:66
  TRACK 21 AUDIO
    TITLE "0:"
    INDEX 01 00:23:10
  TRACK 22 AUDIO
    TITLE "5:cjc157_3930"
    INDEX 01 00:23:55
  TRACK 23 AUDIO
    TITLE "0:"
    INDEX 01 00:26:28
  TRACK 24 AUDIO
    TITLE "3:cjc157_3931"
    INDEX 01 00:26:69
  TRACK 25 AUDIO
    TITLE "0:"
    INDEX 01 00:28:02
  TRACK 26 AUDIO
    TITLE "4:cjc157_3932"
    INDEX 01 00:28:47
  TRACK 27 AUDIO
    TITLE "0:"
    INDEX 01 00:29:66
  TRACK 28 AUDIO
    TITLE "5:cjc157_3933"
    INDEX 01 00:30:32
  TRACK 29 AUDIO
    TITLE "0:"
    INDEX 01 00:32:45
  TRACK 30 AUDIO
    TITLE "3:cjc157_3934"
    INDEX 01 00:33:15
  TRACK 31 AUDIO
    TITLE "0:"
    INDEX 01 00:34:61
  TRACK 32 AUDIO
    TITLE "4:cjc157_3935"
    INDEX 01 00:35:33
  TRACK 33 AUDIO
    TITLE "0:"
    INDEX 01 00:36:56
  TRACK 34 AUDIO
    TITLE "5:cjc157_3936"
    INDEX 01 00:37:26
  TRACK 35 AUDIO
    TITLE "0:"
    INDEX 01 00:39:27
  TRACK 36 AUDIO
    TITLE "3:cjc157_3937"
    INDEX 01 00:39:72
  TRACK 37 AUDIO
    TITLE "0:"
    INDEX 01 00:41:12
  TRACK 38 AUDIO
    TITLE "4:cjc157_3938"
    INDEX 01 00:41:61
  TRACK 39 AUDIO
    TITLE "0:"
    INDEX 01 00:43:09
  TRACK 40 AUDIO
    TITLE "5:cjc157_3939"
    INDEX 01 00:43:52
  TRACK 41 AUDIO
    TITLE "0:"
    INDEX 01 00:46:06
  TRACK 42 AUDIO
    TITLE "3:cjc157_3940"
    INDEX 01 00:46:49
  TRACK 43 AUDIO
    TITLE "0:"
    INDEX 01 00:47:72
  TRACK 44 AUDIO
    TITLE "4:cjc157_3941"
    INDEX 01 00:48:40
  TRACK 45 AUDIO
    TITLE "0:"
    INDEX 01 00:49:55
  TRACK 46 AUDIO
    TITLE "5:cjc157_3942"
    INDEX 01 00:50:27
  TRACK 47 AUDIO
    TITLE "0:"
    INDEX 01 00:52:49
  TRACK 48 AUDIO
    TITLE "3:cjc157_3943"
    INDEX 01 00:53:15
  TRACK 49 AUDIO
    TITLE "0:"
    INDEX 01 00:54:42
  TRACK 50 AUDIO
    TITLE "4:cjc157_3944"
    INDEX 01 00:55:12
  TRACK 51 AUDIO
    TITLE "0:"
    INDEX 01 00:56:37
  TRACK 52 AUDIO
    TITLE "5:cjc157_3945"
    INDEX 01 00:57:07
  TRACK 53 AUDIO
    TITLE "0:"
    INDEX 01 00:58:71
  TRACK 54 AUDIO
    TITLE "3:cjc157_3946"
    INDEX 01 00:59:38
  TRACK 55 AUDIO
    TITLE "0:"
    INDEX 01 01:00:45
  TRACK 56 AUDIO
    TITLE "4:cjc157_3947"
    INDEX 01 01:01:19
  TRACK 57 AUDIO
    TITLE "0:"
    INDEX 01 01:02:30
  TRACK 58 AUDIO
    TITLE "5:cjc157_3948"
    INDEX 01 01:03:02
  TRACK 59 AUDIO
    TITLE "0:"
    INDEX 01 01:04:47
  TRACK 60 AUDIO
    TITLE "5:cjc157_3949"
    INDEX 01 01:05:22
  TRACK 61 AUDIO
    TITLE "0:"
    INDEX 01 01:06:53
  TRACK 62 AUDIO
    TITLE "3:cjc157_3950"
    INDEX 01 01:07:27
  TRACK 63 AUDIO
    TITLE "0:"
    INDEX 01 01:08:36
  TRACK 64 AUDIO
    TITLE "4:cjc157_3951"
    INDEX 01 01:09:09
  TRACK 65 AUDIO
    TITLE "0:"
    INDEX 01 01:10:33
  TRACK 66 AUDIO
    TITLE "5:cjc157_3952"
    INDEX 01 01:11:05
  TRACK 67 AUDIO
    TITLE "0:"
    INDEX 01 01:13:51
  TRACK 68 AUDIO
    TITLE "5:cjc157_3953"
    INDEX 01 01:14:23
  TRACK 69 AUDIO
    TITLE "0:"
    INDEX 01 01:16:26
